<?xml version="1.0" encoding="utf-8" standalone="no"?>
<!DOCTYPE svg PUBLIC "-//W3C//DTD SVG 1.1//EN"
  "http://www.w3.org/Graphics/SVG/1.1/DTD/svg11.dtd">
<svg xmlns:xlink="http://www.w3.org/1999/xlink" width="826.908259pt" height="363.672pt" viewBox="0 0 826.908259 363.672" xmlns="http://www.w3.org/2000/svg" version="1.1">
 <metadata>
  <rdf:RDF xmlns:dc="http://purl.org/dc/elements/1.1/" xmlns:cc="http://creativecommons.org/ns#" xmlns:rdf="http://www.w3.org/1999/02/22-rdf-syntax-ns#">
   <cc:Work>
    <dc:type rdf:resource="http://purl.org/dc/dcmitype/StillImage"/>
    <dc:date>2026-09-18T15:39:28.758049</dc:date>
    <dc:format>image/svg+xml</dc:format>
    <dc:creator>
     <cc:Agent>
      <dc:title>Matplotlib v3.10.0, https://matplotlib.org/</dc:title>
     </cc:Agent>
    </dc:creator>
   </cc:Work>
  </rdf:RDF>
 </metadata>
 <defs>
  <style type="text/css">*{stroke-linejoin: round; stroke-linecap: butt}</style>
 </defs>
 <g id="figure_1">
  <g id="patch_1">
   <path d="M 0 363.672 
L 826.908259 363.672 
L 826.908259 0 
L 0 0 
z
" style="fill: #fafafa"/>
  </g>
  <g id="axes_1">
   <g id="line2d_1">
    <path d="M 51.194137 184.442507 
L 776.594137 184.442507 
" clip-path="url(#p7ce6f855b1)" style="fill: none; stroke: #6c757d; stroke-width: 1.6; stroke-linecap: square"/>
   </g>
   <g id="line2d_2">
    <path d="M 158.095189 186.267063 
L 158.095189 182.617952 
" clip-path="url(#p7ce6f855b1)" style="fill: none; stroke: #6c757d; stroke-linecap: square"/>
   </g>
   <g id="line2d_3">
    <path d="M 253.542558 186.267063 
L 253.542558 182.617952 
" clip-path="url(#p7ce6f855b1)" style="fill: none; stroke: #6c757d; stroke-linecap: square"/>
   </g>
   <g id="line2d_4">
    <path d="M 348.989926 186.267063 
L 348.989926 182.617952 
" clip-path="url(#p7ce6f855b1)" style="fill: none; stroke: #6c757d; stroke-linecap: square"/>
   </g>
   <g id="line2d_5">
    <path d="M 444.437294 186.267063 
L 444.437294 182.617952 
" clip-path="url(#p7ce6f855b1)" style="fill: none; stroke: #6c757d; stroke-linecap: square"/>
   </g>
   <g id="line2d_6">
    <path d="M 539.884663 186.267063 
L 539.884663 182.617952 
" clip-path="url(#p7ce6f855b1)" style="fill: none; stroke: #6c757d; stroke-linecap: square"/>
   </g>
   <g id="line2d_7">
    <path d="M 635.332031 186.267063 
L 635.332031 182.617952 
" clip-path="url(#p7ce6f855b1)" style="fill: none; stroke: #6c757d; stroke-linecap: square"/>
   </g>
   <g id="line2d_8">
    <path d="M 730.7794 186.267063 
L 730.7794 182.617952 
" clip-path="url(#p7ce6f855b1)" style="fill: none; stroke: #6c757d; stroke-linecap: square"/>
   </g>
   <g id="line2d_9">
    <path d="M 91.282031 184.442507 
L 91.282031 155.58847 
" clip-path="url(#p7ce6f855b1)" style="fill: none; stroke: #2d6a7a; stroke-opacity: 0.0576; stroke-width: 1.1; stroke-linecap: square"/>
   </g>
   <g id="line2d_10">
    <path d="M 191.501768 184.442507 
L 191.501768 112.841747 
" clip-path="url(#p7ce6f855b1)" style="fill: none; stroke: #2d6a7a; stroke-opacity: 0.0576; stroke-width: 1.1; stroke-linecap: square"/>
   </g>
   <g id="line2d_11">
    <path d="M 197.037715 184.442507 
L 197.037715 213.296545 
" clip-path="url(#p7ce6f855b1)" style="fill: none; stroke: #2d6a7a; stroke-opacity: 0.0576; stroke-width: 1.1; stroke-linecap: square"/>
   </g>
   <g id="line2d_12">
    <path d="M 299.929979 184.442507 
L 299.929979 155.58847 
" clip-path="url(#p7ce6f855b1)" style="fill: none; stroke: #c44536; stroke-opacity: 0.0576; stroke-width: 1.1; stroke-linecap: square"/>
   </g>
   <g id="line2d_13">
    <path d="M 334.481926 184.442507 
L 334.481926 277.416629 
" clip-path="url(#p7ce6f855b1)" style="fill: none; stroke: #c44536; stroke-opacity: 0.0576; stroke-width: 1.1; stroke-linecap: square"/>
   </g>
   <g id="line2d_14">
    <path d="M 357.389294 184.442507 
L 357.389294 91.468386 
" clip-path="url(#p7ce6f855b1)" style="fill: none; stroke: #c44536; stroke-opacity: 0.0576; stroke-width: 1.1; stroke-linecap: square"/>
   </g>
   <g id="line2d_15">
    <path d="M 393.277505 184.442507 
L 393.277505 205.815869 
" clip-path="url(#p7ce6f855b1)" style="fill: none; stroke: #2d6a7a; stroke-opacity: 0.32; stroke-width: 1.1; stroke-linecap: square"/>
   </g>
   <g id="line2d_16">
    <path d="M 447.300715 184.442507 
L 447.300715 163.069146 
" clip-path="url(#p7ce6f855b1)" style="fill: none; stroke: #81b29a; stroke-opacity: 0.32; stroke-width: 1.1; stroke-linecap: square"/>
   </g>
   <g id="line2d_17">
    <path d="M 463.144979 184.442507 
L 463.144979 248.562591 
" clip-path="url(#p7ce6f855b1)" style="fill: none; stroke: #81b29a; stroke-opacity: 0.32; stroke-width: 1.1; stroke-linecap: square"/>
   </g>
   <g id="line2d_18">
    <path d="M 520.795189 184.442507 
L 520.795189 297.721322 
" clip-path="url(#p7ce6f855b1)" style="fill: none; stroke: #81b29a; stroke-opacity: 0.32; stroke-width: 1.1; stroke-linecap: square"/>
   </g>
   <g id="line2d_19">
    <path d="M 552.67461 184.442507 
L 552.67461 112.841747 
" clip-path="url(#p7ce6f855b1)" style="fill: none; stroke: #81b29a; stroke-opacity: 0.32; stroke-width: 1.1; stroke-linecap: square"/>
   </g>
   <g id="line2d_20">
    <path d="M 589.517294 184.442507 
L 589.517294 248.562591 
" clip-path="url(#p7ce6f855b1)" style="fill: none; stroke: #2d6a7a; stroke-opacity: 0.0576; stroke-width: 1.1; stroke-linecap: square"/>
   </g>
   <g id="line2d_21">
    <path d="M 614.33361 184.442507 
L 614.33361 163.069146 
" clip-path="url(#p7ce6f855b1)" style="fill: none; stroke: #2d6a7a; stroke-opacity: 0.0576; stroke-width: 1.1; stroke-linecap: square"/>
   </g>
   <g id="line2d_22">
    <path d="M 689.927926 184.442507 
L 689.927926 131.009104 
" clip-path="url(#p7ce6f855b1)" style="fill: none; stroke: #81b29a; stroke-opacity: 0.0576; stroke-width: 1.1; stroke-linecap: square"/>
   </g>
   <g id="line2d_23">
    <path d="M 696.036558 184.442507 
L 696.036558 213.296545 
" clip-path="url(#p7ce6f855b1)" style="fill: none; stroke: #81b29a; stroke-opacity: 0.0576; stroke-width: 1.1; stroke-linecap: square"/>
   </g>
   <g id="line2d_24">
    <path d="M 727.1524 184.442507 
L 727.1524 77.575701 
" clip-path="url(#p7ce6f855b1)" style="fill: none; stroke: #c44536; stroke-opacity: 0.0576; stroke-width: 1.1; stroke-linecap: square"/>
   </g>
   <g id="line2d_25">
    <path d="M 738.415189 184.442507 
L 738.415189 297.721322 
" clip-path="url(#p7ce6f855b1)" style="fill: none; stroke: #2d6a7a; stroke-opacity: 0.0576; stroke-width: 1.1; stroke-linecap: square"/>
   </g>
   <g id="PathCollection_1">
    <defs>
     <path id="mdc648d3da2" d="M 0 4.743416 
C 1.257969 4.743416 2.464584 4.24362 3.354102 3.354102 
C 4.24362 2.464584 4.743416 1.257969 4.743416 0 
C 4.743416 -1.257969 4.24362 -2.464584 3.354102 -3.354102 
C 2.464584 -4.24362 1.257969 -4.743416 0 -4.743416 
C -1.257969 -4.743416 -2.464584 -4.24362 -3.354102 -3.354102 
C -4.24362 -2.464584 -4.743416 -1.257969 -4.743416 0 
C -4.743416 1.257969 -4.24362 2.464584 -3.354102 3.354102 
C -2.464584 4.24362 -1.257969 4.743416 0 4.743416 
z
" style="stroke: #ffffff; stroke-opacity: 0.18; stroke-width: 1.5"/>
    </defs>
    <g clip-path="url(#p7ce6f855b1)">
     <use xlink:href="#mdc648d3da2" x="91.282031" y="184.442507" style="fill: #2d6a7a; fill-opacity: 0.18; stroke: #ffffff; stroke-opacity: 0.18; stroke-width: 1.5"/>
    </g>
   </g>
   <g id="text_1">
    <text style="font-size: 10.5px; font-family: 'Helvetica Neue', 'Arial', 'DejaVu Sans', sans-serif; fill: #1a1a2e; opacity: 0.18" transform="translate(7.2 139.840663)">Licenciatura en CC. Económicas</text>
    <text style="font-size: 10.5px; font-family: 'Helvetica Neue', 'Arial', 'DejaVu Sans', sans-serif; fill: #1a1a2e; opacity: 0.18" transform="translate(36.062695 151.997284)">y Empresariales (UV)</text>
   </g>
   <g id="text_2">
    <text style="font-weight: 700; font-size: 12.5px; font-family: 'Helvetica Neue', 'Arial', 'DejaVu Sans', sans-serif; text-anchor: middle; fill: #2d6a7a; opacity: 0.18" x="91.282031" y="120.581346" transform="rotate(-0 91.282031 120.581346)">1991</text>
   </g>
   <g id="PathCollection_2">
    <g clip-path="url(#p7ce6f855b1)">
     <use xlink:href="#mdc648d3da2" x="191.501768" y="184.442507" style="fill: #2d6a7a; fill-opacity: 0.18; stroke: #ffffff; stroke-opacity: 0.18; stroke-width: 1.5"/>
    </g>
   </g>
   <g id="text_3">
    <text style="font-size: 10.5px; font-family: 'Helvetica Neue', 'Arial', 'DejaVu Sans', sans-serif; text-anchor: middle; fill: #1a1a2e; opacity: 0.18" x="191.501768" y="107.165356" transform="rotate(-0 191.501768 107.165356)">Tesis doctoral (UV)</text>
   </g>
   <g id="text_4">
    <text style="font-weight: 700; font-size: 12.5px; font-family: 'Helvetica Neue', 'Arial', 'DejaVu Sans', sans-serif; text-anchor: middle; fill: #2d6a7a; opacity: 0.18" x="191.501768" y="90.249418" transform="rotate(-0 191.501768 90.249418)">oct. 1996</text>
   </g>
   <g id="PathCollection_3">
    <g clip-path="url(#p7ce6f855b1)">
     <use xlink:href="#mdc648d3da2" x="197.037715" y="184.442507" style="fill: #2d6a7a; fill-opacity: 0.18; stroke: #ffffff; stroke-opacity: 0.18; stroke-width: 1.5"/>
    </g>
   </g>
   <g id="text_5">
    <text style="font-weight: 700; font-size: 12.5px; font-family: 'Helvetica Neue', 'Arial', 'DejaVu Sans', sans-serif; text-anchor: middle; fill: #2d6a7a; opacity: 0.18" x="197.037715" y="224.202106" transform="rotate(-0 197.037715 224.202106)">14-1-1997</text>
   </g>
   <g id="text_6">
    <text style="font-size: 10.5px; font-family: 'Helvetica Neue', 'Arial', 'DejaVu Sans', sans-serif; fill: #1a1a2e; opacity: 0.18" transform="translate(118.290176 240.102418)">Profesor ayudante · Economía</text>
    <text style="font-size: 10.5px; font-family: 'Helvetica Neue', 'Arial', 'DejaVu Sans', sans-serif; fill: #1a1a2e; opacity: 0.18" transform="translate(126.826348 252.78404)">Política y Hacienda Pública</text>
   </g>
   <g id="PathCollection_4">
    <defs>
     <path id="mbe2232745b" d="M 0 4.743416 
C 1.257969 4.743416 2.464584 4.24362 3.354102 3.354102 
C 4.24362 2.464584 4.743416 1.257969 4.743416 0 
C 4.743416 -1.257969 4.24362 -2.464584 3.354102 -3.354102 
C 2.464584 -4.24362 1.257969 -4.743416 0 -4.743416 
C -1.257969 -4.743416 -2.464584 -4.24362 -3.354102 -3.354102 
C -4.24362 -2.464584 -4.743416 -1.257969 -4.743416 0 
C -4.743416 1.257969 -4.24362 2.464584 -3.354102 3.354102 
C -2.464584 4.24362 -1.257969 4.743416 0 4.743416 
z
" style="stroke: #ffffff; stroke-opacity: 0.18; stroke-width: 1.5"/>
    </defs>
    <g clip-path="url(#p7ce6f855b1)">
     <use xlink:href="#mbe2232745b" x="299.929979" y="184.442507" style="fill: #c44536; fill-opacity: 0.18; stroke: #ffffff; stroke-opacity: 0.18; stroke-width: 1.5"/>
    </g>
   </g>
   <g id="text_7">
    <text style="font-size: 10.5px; font-family: 'Helvetica Neue', 'Arial', 'DejaVu Sans', sans-serif; fill: #1a1a2e; opacity: 0.18" transform="translate(251.798963 139.840663)">Profesor Titular de</text>
    <text style="font-size: 10.5px; font-family: 'Helvetica Neue', 'Arial', 'DejaVu Sans', sans-serif; fill: #1a1a2e; opacity: 0.18" transform="translate(244.662244 151.997284)">Escuela Universitaria</text>
   </g>
   <g id="text_8">
    <text style="font-weight: 700; font-size: 12.5px; font-family: 'Helvetica Neue', 'Arial', 'DejaVu Sans', sans-serif; text-anchor: middle; fill: #c44536; opacity: 0.18" x="299.929979" y="120.581346" transform="rotate(-0 299.929979 120.581346)">5-6-2002</text>
   </g>
   <g id="PathCollection_5">
    <g clip-path="url(#p7ce6f855b1)">
     <use xlink:href="#mbe2232745b" x="334.481926" y="184.442507" style="fill: #c44536; fill-opacity: 0.18; stroke: #ffffff; stroke-opacity: 0.18; stroke-width: 1.5"/>
    </g>
   </g>
   <g id="text_9">
    <text style="font-weight: 700; font-size: 12.5px; font-family: 'Helvetica Neue', 'Arial', 'DejaVu Sans', sans-serif; text-anchor: middle; fill: #c44536; opacity: 0.18" x="334.481926" y="291.449999" transform="rotate(-0 334.481926 291.449999)">30-3-2004</text>
   </g>
   <g id="text_10">
    <text style="font-size: 10.5px; font-family: 'Helvetica Neue', 'Arial', 'DejaVu Sans', sans-serif; fill: #1a1a2e; opacity: 0.18" transform="translate(266.071145 306.930311)">Habilitación nacional a TU</text>
    <text style="font-size: 10.5px; font-family: 'Helvetica Neue', 'Arial', 'DejaVu Sans', sans-serif; fill: #1a1a2e; opacity: 0.18" transform="translate(282.903957 319.611932)">Economía Aplicada </text>
    <text style="font-size: 10.5px; font-family: 'Helvetica Neue', 'Arial', 'DejaVu Sans', sans-serif; fill: #1a1a2e; opacity: 0.18" transform="translate(244.254113 331.768553)"> Universidad de Alcalá de Henares</text>
   </g>
   <g id="PathCollection_6">
    <g clip-path="url(#p7ce6f855b1)">
     <use xlink:href="#mbe2232745b" x="357.389294" y="184.442507" style="fill: #c44536; fill-opacity: 0.18; stroke: #ffffff; stroke-opacity: 0.18; stroke-width: 1.5"/>
    </g>
   </g>
   <g id="text_11">
    <text style="font-size: 10.5px; font-family: 'Helvetica Neue', 'Arial', 'DejaVu Sans', sans-serif; fill: #1a1a2e; opacity: 0.18" transform="translate(317.490115 72.59277)">Profesor Titular</text>
    <text style="font-size: 10.5px; font-family: 'Helvetica Neue', 'Arial', 'DejaVu Sans', sans-serif; fill: #1a1a2e; opacity: 0.18" transform="translate(317.956873 84.749391)">de Universidad</text>
   </g>
   <g id="text_12">
    <text style="font-weight: 700; font-size: 12.5px; font-family: 'Helvetica Neue', 'Arial', 'DejaVu Sans', sans-serif; text-anchor: middle; fill: #c44536; opacity: 0.18" x="357.389294" y="53.333454" transform="rotate(-0 357.389294 53.333454)">8-6-2005</text>
   </g>
   <g id="PathCollection_7">
    <defs>
     <path id="m4250424641" d="M 0 4.743416 
C 1.257969 4.743416 2.464584 4.24362 3.354102 3.354102 
C 4.24362 2.464584 4.743416 1.257969 4.743416 0 
C 4.743416 -1.257969 4.24362 -2.464584 3.354102 -3.354102 
C 2.464584 -4.24362 1.257969 -4.743416 0 -4.743416 
C -1.257969 -4.743416 -2.464584 -4.24362 -3.354102 -3.354102 
C -4.24362 -2.464584 -4.743416 -1.257969 -4.743416 0 
C -4.743416 1.257969 -4.24362 2.464584 -3.354102 3.354102 
C -2.464584 4.24362 -1.257969 4.743416 0 4.743416 
z
" style="stroke: #ffffff; stroke-width: 1.5"/>
    </defs>
    <g clip-path="url(#p7ce6f855b1)">
     <use xlink:href="#m4250424641" x="393.277505" y="184.442507" style="fill: #2d6a7a; stroke: #ffffff; stroke-width: 1.5"/>
    </g>
   </g>
   <g id="text_13">
    <text style="font-weight: 700; font-size: 12.5px; font-family: 'Helvetica Neue', 'Arial', 'DejaVu Sans', sans-serif; text-anchor: middle; fill: #2d6a7a" x="393.277505" y="216.356519" transform="rotate(-0 393.277505 216.356519)">25-4-2007</text>
   </g>
   <g id="text_14">
    <text style="font-size: 10.5px; font-family: 'Helvetica Neue', 'Arial', 'DejaVu Sans', sans-serif; fill: #1a1a2e" transform="translate(325.636177 232.256831)">Adscripción área Métodos</text>
    <text style="font-size: 10.5px; font-family: 'Helvetica Neue', 'Arial', 'DejaVu Sans', sans-serif; fill: #1a1a2e" transform="translate(358.376489 244.413452)">Cuantitativos</text>
   </g>
   <g id="PathCollection_8">
    <defs>
     <path id="mb67a8607e5" d="M 0 4.743416 
C 1.257969 4.743416 2.464584 4.24362 3.354102 3.354102 
C 4.24362 2.464584 4.743416 1.257969 4.743416 0 
C 4.743416 -1.257969 4.24362 -2.464584 3.354102 -3.354102 
C 2.464584 -4.24362 1.257969 -4.743416 0 -4.743416 
C -1.257969 -4.743416 -2.464584 -4.24362 -3.354102 -3.354102 
C -4.24362 -2.464584 -4.743416 -1.257969 -4.743416 0 
C -4.743416 1.257969 -4.24362 2.464584 -3.354102 3.354102 
C -2.464584 4.24362 -1.257969 4.743416 0 4.743416 
z
" style="stroke: #ffffff; stroke-width: 1.5"/>
    </defs>
    <g clip-path="url(#p7ce6f855b1)">
     <use xlink:href="#mb67a8607e5" x="447.300715" y="184.442507" style="fill: #81b29a; stroke: #ffffff; stroke-width: 1.5"/>
    </g>
   </g>
   <g id="text_15">
    <text style="font-size: 10.5px; font-family: 'Helvetica Neue', 'Arial', 'DejaVu Sans', sans-serif; fill: #1a1a2e" transform="translate(383.449231 135.529629)">Coordinador título GEDE</text>
    <text style="font-size: 10.5px; font-family: 'Helvetica Neue', 'Arial', 'DejaVu Sans', sans-serif; fill: #1a1a2e" transform="translate(390.022395 147.68625)">Comisión Intercambio</text>
    <text style="font-size: 10.5px; font-family: 'Helvetica Neue', 'Arial', 'DejaVu Sans', sans-serif; fill: #1a1a2e" transform="translate(403.304895 159.842871)">Estudiantes (UV)</text>
   </g>
   <g id="text_16">
    <text style="font-weight: 700; font-size: 12.5px; font-family: 'Helvetica Neue', 'Arial', 'DejaVu Sans', sans-serif; text-anchor: middle; fill: #81b29a" x="447.300715" y="113.926934" transform="rotate(-0 447.300715 113.926934)">26-2-2010</text>
   </g>
   <g id="PathCollection_9">
    <g clip-path="url(#p7ce6f855b1)">
     <use xlink:href="#mb67a8607e5" x="463.144979" y="184.442507" style="fill: #81b29a; stroke: #ffffff; stroke-width: 1.5"/>
    </g>
   </g>
   <g id="text_17">
    <text style="font-weight: 700; font-size: 12.5px; font-family: 'Helvetica Neue', 'Arial', 'DejaVu Sans', sans-serif; text-anchor: middle; fill: #81b29a" x="463.144979" y="261.188447" transform="rotate(-0 463.144979 261.188447)">23-12-2010</text>
   </g>
   <g id="text_18">
    <text style="font-size: 10.5px; font-family: 'Helvetica Neue', 'Arial', 'DejaVu Sans', sans-serif; fill: #1a1a2e" transform="translate(409.12494 276.668759)">Comisión Relaciones</text>
    <text style="font-size: 10.5px; font-family: 'Helvetica Neue', 'Arial', 'DejaVu Sans', sans-serif; fill: #1a1a2e" transform="translate(409.645018 288.82538)">Internacionales (UV)</text>
   </g>
   <g id="PathCollection_10">
    <g clip-path="url(#p7ce6f855b1)">
     <use xlink:href="#mb67a8607e5" x="520.795189" y="184.442507" style="fill: #81b29a; stroke: #ffffff; stroke-width: 1.5"/>
    </g>
   </g>
   <g id="text_19">
    <text style="font-weight: 700; font-size: 12.5px; font-family: 'Helvetica Neue', 'Arial', 'DejaVu Sans', sans-serif; text-anchor: middle; fill: #81b29a" x="520.795189" y="312.745164" transform="rotate(-0 520.795189 312.745164)">2010–2014</text>
   </g>
   <g id="text_20">
    <text style="font-size: 10.5px; font-family: 'Helvetica Neue', 'Arial', 'DejaVu Sans', sans-serif; fill: #1a1a2e" transform="translate(459.719642 328.225477)">IP proyecto MBA-TABSA</text>
    <text style="font-size: 10.5px; font-family: 'Helvetica Neue', 'Arial', 'DejaVu Sans', sans-serif; fill: #1a1a2e" transform="translate(469.168822 340.907098)">(Comisión Europea)</text>
   </g>
   <g id="PathCollection_11">
    <g clip-path="url(#p7ce6f855b1)">
     <use xlink:href="#mb67a8607e5" x="552.67461" y="184.442507" style="fill: #81b29a; stroke: #ffffff; stroke-width: 1.5"/>
    </g>
   </g>
   <g id="text_21">
    <text style="font-size: 10.5px; font-family: 'Helvetica Neue', 'Arial', 'DejaVu Sans', sans-serif; fill: #1a1a2e" transform="translate(487.608243 95.008734)">Fundador/vicepresidente</text>
    <text style="font-size: 10.5px; font-family: 'Helvetica Neue', 'Arial', 'DejaVu Sans', sans-serif; fill: #1a1a2e" transform="translate(515.493126 107.165356)">IMBRA (Viena)</text>
   </g>
   <g id="text_22">
    <text style="font-weight: 700; font-size: 12.5px; font-family: 'Helvetica Neue', 'Arial', 'DejaVu Sans', sans-serif; text-anchor: middle; fill: #81b29a" x="552.67461" y="75.749418" transform="rotate(-0 552.67461 75.749418)">2-9-2015</text>
   </g>
   <g id="PathCollection_12">
    <g clip-path="url(#p7ce6f855b1)">
     <use xlink:href="#mdc648d3da2" x="589.517294" y="184.442507" style="fill: #2d6a7a; fill-opacity: 0.18; stroke: #ffffff; stroke-opacity: 0.18; stroke-width: 1.5"/>
    </g>
   </g>
   <g id="text_23">
    <text style="font-weight: 700; font-size: 12.5px; font-family: 'Helvetica Neue', 'Arial', 'DejaVu Sans', sans-serif; text-anchor: middle; fill: #2d6a7a; opacity: 0.18" x="589.517294" y="261.188447" transform="rotate(-0 589.517294 261.188447)">2012–2017</text>
   </g>
   <g id="text_24">
    <text style="font-size: 10.5px; font-family: 'Helvetica Neue', 'Arial', 'DejaVu Sans', sans-serif; text-anchor: middle; fill: #1a1a2e; opacity: 0.18" x="589.517294" y="276.668759" transform="rotate(-0 589.517294 276.668759)">Sexenio transferencia</text>
   </g>
   <g id="PathCollection_13">
    <g clip-path="url(#p7ce6f855b1)">
     <use xlink:href="#mdc648d3da2" x="614.33361" y="184.442507" style="fill: #2d6a7a; fill-opacity: 0.18; stroke: #ffffff; stroke-opacity: 0.18; stroke-width: 1.5"/>
    </g>
   </g>
   <g id="text_25">
    <text style="font-size: 10.5px; font-family: 'Helvetica Neue', 'Arial', 'DejaVu Sans', sans-serif; fill: #1a1a2e; opacity: 0.18" transform="translate(576.760016 147.16125)">Tercer sexenio</text>
    <text style="font-size: 10.5px; font-family: 'Helvetica Neue', 'Arial', 'DejaVu Sans', sans-serif; fill: #1a1a2e; opacity: 0.18" transform="translate(571.291813 159.842871)">de investigación</text>
   </g>
   <g id="text_26">
    <text style="font-weight: 700; font-size: 12.5px; font-family: 'Helvetica Neue', 'Arial', 'DejaVu Sans', sans-serif; text-anchor: middle; fill: #2d6a7a; opacity: 0.18" x="614.33361" y="128.426934" transform="rotate(-0 614.33361 128.426934)">2013–2018</text>
   </g>
   <g id="PathCollection_14">
    <defs>
     <path id="mb6330923e3" d="M 0 4.743416 
C 1.257969 4.743416 2.464584 4.24362 3.354102 3.354102 
C 4.24362 2.464584 4.743416 1.257969 4.743416 0 
C 4.743416 -1.257969 4.24362 -2.464584 3.354102 -3.354102 
C 2.464584 -4.24362 1.257969 -4.743416 0 -4.743416 
C -1.257969 -4.743416 -2.464584 -4.24362 -3.354102 -3.354102 
C -4.24362 -2.464584 -4.743416 -1.257969 -4.743416 0 
C -4.743416 1.257969 -4.24362 2.464584 -3.354102 3.354102 
C -2.464584 4.24362 -1.257969 4.743416 0 4.743416 
z
" style="stroke: #ffffff; stroke-opacity: 0.18; stroke-width: 1.5"/>
    </defs>
    <g clip-path="url(#p7ce6f855b1)">
     <use xlink:href="#mb6330923e3" x="689.927926" y="184.442507" style="fill: #81b29a; fill-opacity: 0.18; stroke: #ffffff; stroke-opacity: 0.18; stroke-width: 1.5"/>
    </g>
   </g>
   <g id="text_27">
    <text style="font-size: 10.5px; font-family: 'Helvetica Neue', 'Arial', 'DejaVu Sans', sans-serif; fill: #1a1a2e; opacity: 0.18" transform="translate(648.352848 114.062304)">Dirección grupo</text>
    <text style="font-size: 10.5px; font-family: 'Helvetica Neue', 'Arial', 'DejaVu Sans', sans-serif; fill: #1a1a2e; opacity: 0.18" transform="translate(657.693746 126.218925)">CREAMARKT</text>
   </g>
   <g id="text_28">
    <text style="font-weight: 700; font-size: 12.5px; font-family: 'Helvetica Neue', 'Arial', 'DejaVu Sans', sans-serif; text-anchor: middle; fill: #81b29a; opacity: 0.18" x="689.927926" y="94.802988" transform="rotate(-0 689.927926 94.802988)">11-11-2022</text>
   </g>
   <g id="PathCollection_15">
    <g clip-path="url(#p7ce6f855b1)">
     <use xlink:href="#mb6330923e3" x="696.036558" y="184.442507" style="fill: #81b29a; fill-opacity: 0.18; stroke: #ffffff; stroke-opacity: 0.18; stroke-width: 1.5"/>
    </g>
   </g>
   <g id="text_29">
    <text style="font-weight: 700; font-size: 12.5px; font-family: 'Helvetica Neue', 'Arial', 'DejaVu Sans', sans-serif; text-anchor: middle; fill: #81b29a; opacity: 0.18" x="696.036558" y="224.202106" transform="rotate(-0 696.036558 224.202106)">6-3-2023</text>
   </g>
   <g id="text_30">
    <text style="font-size: 10.5px; font-family: 'Helvetica Neue', 'Arial', 'DejaVu Sans', sans-serif; fill: #1a1a2e; opacity: 0.18" transform="translate(649.756167 239.682418)">Co-director grupo</text>
    <text style="font-size: 10.5px; font-family: 'Helvetica Neue', 'Arial', 'DejaVu Sans', sans-serif; fill: #1a1a2e; opacity: 0.18" transform="translate(656.418745 251.83904)">consolidado de</text>
    <text style="font-size: 10.5px; font-family: 'Helvetica Neue', 'Arial', 'DejaVu Sans', sans-serif; fill: #1a1a2e; opacity: 0.18" transform="translate(644.555386 263.995661)">innovación docente</text>
   </g>
   <g id="PathCollection_16">
    <defs>
     <path id="m18bc27e33f" d="M 0 6.519202 
C 1.728913 6.519202 3.387246 5.832298 4.609772 4.609772 
C 5.832298 3.387246 6.519202 1.728913 6.519202 0 
C 6.519202 -1.728913 5.832298 -3.387246 4.609772 -4.609772 
C 3.387246 -5.832298 1.728913 -6.519202 0 -6.519202 
C -1.728913 -6.519202 -3.387246 -5.832298 -4.609772 -4.609772 
C -5.832298 -3.387246 -6.519202 -1.728913 -6.519202 0 
C -6.519202 1.728913 -5.832298 3.387246 -4.609772 4.609772 
C -3.387246 5.832298 -1.728913 6.519202 0 6.519202 
z
" style="stroke: #ffffff; stroke-opacity: 0.18; stroke-width: 1.5"/>
    </defs>
    <g clip-path="url(#p7ce6f855b1)">
     <use xlink:href="#m18bc27e33f" x="727.1524" y="184.442507" style="fill: #c44536; fill-opacity: 0.18; stroke: #ffffff; stroke-opacity: 0.18; stroke-width: 1.5"/>
    </g>
   </g>
   <g id="text_31">
    <text style="font-size: 10.5px; font-family: 'Helvetica Neue', 'Arial', 'DejaVu Sans', sans-serif; fill: #1a1a2e; opacity: 0.18" transform="translate(634.59654 57.497394)">Acreditación a Catedrático de Univ.</text>
    <text style="font-size: 10.5px; font-family: 'Helvetica Neue', 'Arial', 'DejaVu Sans', sans-serif; fill: #1a1a2e; opacity: 0.18" transform="translate(642.525681 70.179015)">CC. Sociales y Jurídicas (ANECA)</text>
   </g>
   <g id="text_32">
    <text style="font-weight: 700; font-size: 12.5px; font-family: 'Helvetica Neue', 'Arial', 'DejaVu Sans', sans-serif; text-anchor: middle; fill: #c44536; opacity: 0.18" x="727.1524" y="38.763077" transform="rotate(-0 727.1524 38.763077)">22-10-2024</text>
   </g>
   <g id="PathCollection_17">
    <g clip-path="url(#p7ce6f855b1)">
     <use xlink:href="#mdc648d3da2" x="738.415189" y="184.442507" style="fill: #2d6a7a; fill-opacity: 0.18; stroke: #ffffff; stroke-opacity: 0.18; stroke-width: 1.5"/>
    </g>
   </g>
   <g id="text_33">
    <text style="font-weight: 700; font-size: 12.5px; font-family: 'Helvetica Neue', 'Arial', 'DejaVu Sans', sans-serif; text-anchor: middle; fill: #2d6a7a; opacity: 0.18" x="738.415189" y="312.745164" transform="rotate(-0 738.415189 312.745164)">2019–2024</text>
   </g>
   <g id="text_34">
    <text style="font-size: 10.5px; font-family: 'Helvetica Neue', 'Arial', 'DejaVu Sans', sans-serif; fill: #1a1a2e; opacity: 0.18" transform="translate(699.062338 328.225477)">Cuarto sexenio</text>
    <text style="font-size: 10.5px; font-family: 'Helvetica Neue', 'Arial', 'DejaVu Sans', sans-serif; fill: #1a1a2e; opacity: 0.18" transform="translate(695.373392 340.907098)">de investigación</text>
   </g>
   <g id="patch_2">
    <path d="M 57.013876 184.442507 
Q 411.030821 184.442507 763.258912 184.442507 
" style="fill: none; stroke: #6c757d; stroke-width: 1.6; stroke-linecap: round"/>
    <path d="M 759.258912 182.442507 
L 763.258912 184.442507 
L 759.258912 186.442507 
z
" style="fill: #6c757d; stroke: #6c757d; stroke-width: 1.6; stroke-linecap: round"/>
   </g>
   <g id="text_35">
    <text style="font-size: 10px; font-family: 'Helvetica Neue', 'Arial', 'DejaVu Sans', sans-serif; text-anchor: middle; fill: #6c757d" x="158.095189" y="196.211357" transform="rotate(-0 158.095189 196.211357)">1995</text>
   </g>
   <g id="text_36">
    <text style="font-size: 10px; font-family: 'Helvetica Neue', 'Arial', 'DejaVu Sans', sans-serif; text-anchor: middle; fill: #6c757d" x="253.542558" y="196.211357" transform="rotate(-0 253.542558 196.211357)">2000</text>
   </g>
   <g id="text_37">
    <text style="font-size: 10px; font-family: 'Helvetica Neue', 'Arial', 'DejaVu Sans', sans-serif; text-anchor: middle; fill: #6c757d" x="348.989926" y="196.211357" transform="rotate(-0 348.989926 196.211357)">2005</text>
   </g>
   <g id="text_38">
    <text style="font-size: 10px; font-family: 'Helvetica Neue', 'Arial', 'DejaVu Sans', sans-serif; text-anchor: middle; fill: #6c757d" x="444.437294" y="196.211357" transform="rotate(-0 444.437294 196.211357)">2010</text>
   </g>
   <g id="text_39">
    <text style="font-size: 10px; font-family: 'Helvetica Neue', 'Arial', 'DejaVu Sans', sans-serif; text-anchor: middle; fill: #6c757d" x="539.884663" y="196.211357" transform="rotate(-0 539.884663 196.211357)">2015</text>
   </g>
   <g id="text_40">
    <text style="font-size: 10px; font-family: 'Helvetica Neue', 'Arial', 'DejaVu Sans', sans-serif; text-anchor: middle; fill: #6c757d" x="635.332031" y="196.211357" transform="rotate(-0 635.332031 196.211357)">2020</text>
   </g>
   <g id="text_41">
    <text style="font-size: 10px; font-family: 'Helvetica Neue', 'Arial', 'DejaVu Sans', sans-serif; text-anchor: middle; fill: #6c757d" x="730.7794" y="196.211357" transform="rotate(-0 730.7794 196.211357)">2025</text>
   </g>
   <g id="legend_1">
    <g id="line2d_26">
     <defs>
      <path id="mb773808d62" d="M 0 4 
C 1.060812 4 2.078319 3.578535 2.828427 2.828427 
C 3.578535 2.078319 4 1.060812 4 0 
C 4 -1.060812 3.578535 -2.078319 2.828427 -2.828427 
C 2.078319 -3.578535 1.060812 -4 0 -4 
C -1.060812 -4 -2.078319 -3.578535 -2.828427 -2.828427 
C -3.578535 -2.078319 -4 -1.060812 -4 0 
C -4 1.060812 -3.578535 2.078319 -2.828427 2.828427 
C -2.078319 3.578535 -1.060812 4 0 4 
z
" style="stroke: #c44536"/>
     </defs>
     <g>
      <use xlink:href="#mb773808d62" x="73.821137" y="300.257902" style="fill: #c44536; stroke: #c44536"/>
     </g>
    </g>
    <g id="text_42">
     <text style="font-size: 10px; font-family: 'Helvetica Neue', 'Arial', 'DejaVu Sans', sans-serif; text-anchor: start; fill: #1a1a2e" x="86.321137" y="303.757902" transform="rotate(-0 86.321137 303.757902)">cuerpos docentes y acreditación</text>
    </g>
    <g id="line2d_27">
     <defs>
      <path id="m40454a33d5" d="M 0 4 
C 1.060812 4 2.078319 3.578535 2.828427 2.828427 
C 3.578535 2.078319 4 1.060812 4 0 
C 4 -1.060812 3.578535 -2.078319 2.828427 -2.828427 
C 2.078319 -3.578535 1.060812 -4 0 -4 
C -1.060812 -4 -2.078319 -3.578535 -2.828427 -2.828427 
C -3.578535 -2.078319 -4 -1.060812 -4 0 
C -4 1.060812 -3.578535 2.078319 -2.828427 2.828427 
C -2.078319 3.578535 -1.060812 4 0 4 
z
" style="stroke: #2d6a7a"/>
     </defs>
     <g>
      <use xlink:href="#m40454a33d5" x="73.821137" y="315.836027" style="fill: #2d6a7a; stroke: #2d6a7a"/>
     </g>
    </g>
    <g id="text_43">
     <text style="font-size: 10px; font-family: 'Helvetica Neue', 'Arial', 'DejaVu Sans', sans-serif; text-anchor: start; fill: #1a1a2e" x="86.321137" y="319.336027" transform="rotate(-0 86.321137 319.336027)">formación y trayectoria</text>
    </g>
    <g id="line2d_28">
     <defs>
      <path id="maee3458e06" d="M 0 4 
C 1.060812 4 2.078319 3.578535 2.828427 2.828427 
C 3.578535 2.078319 4 1.060812 4 0 
C 4 -1.060812 3.578535 -2.078319 2.828427 -2.828427 
C 2.078319 -3.578535 1.060812 -4 0 -4 
C -1.060812 -4 -2.078319 -3.578535 -2.828427 -2.828427 
C -3.578535 -2.078319 -4 -1.060812 -4 0 
C -4 1.060812 -3.578535 2.078319 -2.828427 2.828427 
C -2.078319 3.578535 -1.060812 4 0 4 
z
" style="stroke: #81b29a"/>
     </defs>
     <g>
      <use xlink:href="#maee3458e06" x="73.821137" y="331.414152" style="fill: #81b29a; stroke: #81b29a"/>
     </g>
    </g>
    <g id="text_44">
     <text style="font-size: 10px; font-family: 'Helvetica Neue', 'Arial', 'DejaVu Sans', sans-serif; text-anchor: start; fill: #1a1a2e" x="86.321137" y="334.914152" transform="rotate(-0 86.321137 334.914152)">gestión y liderazgo</text>
    </g>
   </g>
  </g>
 </g>
 <defs>
  <clipPath id="p7ce6f855b1">
   <rect x="51.194137" y="7.2" width="725.4" height="349.272"/>
  </clipPath>
 </defs>
</svg>
